<svg width="35" height="43" viewBox="0 0 35 43" fill="none" xmlns="http://www.w3.org/2000/svg">
<path d="M20.4594 14.8099V16.4091H14.1224V14.8099C14.1224 13.0622 15.5444 11.641 17.2913 11.641C19.0382 11.641 20.4594 13.0622 20.4594 14.8099ZM34.3318 6.64192L34.2918 20.7796C34.2918 20.7796 33.4926 28.1574 28.469 34.1116C24.3148 39.0339 18.0848 42.1033 17.3289 42.4641V42.5C17.3289 42.5 17.3158 42.4943 17.2913 42.482C17.266 42.4943 17.2529 42.5 17.2529 42.5V42.4641C16.497 42.1033 10.267 39.0339 6.11356 34.1116C1.08917 28.1574 0.290816 20.7796 0.290816 20.7796L0.25 6.64192L17.2529 0.526938V0.5L17.2913 0.513061L17.3289 0.5V0.526938L34.3318 6.64192ZM24.6381 18.6286C24.6381 17.4033 23.6438 16.4091 22.4186 16.4091H21.7655V14.8099C21.7655 12.3422 19.7582 10.3349 17.2913 10.3349C14.8244 10.3349 12.8163 12.3422 12.8163 14.8099V16.4091H12.1641C10.938 16.4091 9.94451 17.4033 9.94451 18.6286V27.1803C9.94451 28.4056 10.938 29.3998 12.1641 29.3998H22.4186C23.6438 29.3998 24.6381 28.4056 24.6381 27.1803V18.6286Z" fill="#89BCD9"/>
</svg>
