<svg width="41" height="45" viewBox="0 0 41 45" fill="none" xmlns="http://www.w3.org/2000/svg">
<path d="M36.45 0H4.05C1.8135 0 0 1.8135 0 4.05V40.95C0 43.1865 1.8135 45 4.05 45H36.45C38.6865 45 40.5 43.1865 40.5 40.95V4.05C40.5 1.8135 38.6865 0 36.45 0ZM10.125 38.25V29.25L15.1875 33.75L10.125 38.25ZM25.875 38.25V24.8119C25.8531 23.7617 25.3474 22.5 23.0625 22.5C18.4871 22.5 13.3549 24.8012 13.3037 24.8242L10.125 26.2643V6.75H14.625V19.5249C16.8716 18.7937 20.0121 18 23.0625 18C25.8441 18 27.5091 19.0935 28.4158 20.0109C30.3514 21.9684 30.3778 24.462 30.3751 24.75V38.25H25.875ZM27 14.0625H22.5C24.2685 11.7422 25.3789 9.30037 25.875 6.75H30.375C30.0713 9.306 29.0351 11.7563 27 14.0625Z" fill="#89BCD9"/>
</svg>
